<svg width="24" height="25" viewBox="0 0 24 25" fill="none" xmlns="http://www.w3.org/2000/svg">
<path d="M12 18H12.01M8.2 22.5H15.8C16.9201 22.5 17.4802 22.5 17.908 22.282C18.2843 22.0903 18.5903 21.7843 18.782 21.408C19 20.9802 19 20.4201 19 19.3V5.7C19 4.57989 19 4.01984 18.782 3.59202C18.5903 3.21569 18.2843 2.90973 17.908 2.71799C17.4802 2.5 16.9201 2.5 15.8 2.5H8.2C7.0799 2.5 6.51984 2.5 6.09202 2.71799C5.71569 2.90973 5.40973 3.21569 5.21799 3.59202C5 4.01984 5 4.5799 5 5.7V19.3C5 20.4201 5 20.9802 5.21799 21.408C5.40973 21.7843 5.71569 22.0903 6.09202 22.282C6.51984 22.5 7.07989 22.5 8.2 22.5ZM12.5 18C12.5 18.2761 12.2761 18.5 12 18.5C11.7239 18.5 11.5 18.2761 11.5 18C11.5 17.7239 11.7239 17.5 12 17.5C12.2761 17.5 12.5 17.7239 12.5 18Z" stroke="url(#paint0_linear_6733_23579)" stroke-width="2" stroke-linecap="round" stroke-linejoin="round"/>
<defs>
<linearGradient id="paint0_linear_6733_23579" x1="12" y1="2.5" x2="12" y2="22.5" gradientUnits="userSpaceOnUse">
<stop offset="0.125" stop-color="#2B9810"/>
<stop offset="0.35" stop-color="#109856" stop-opacity="0.742857"/>
<stop offset="1" stop-color="#109856" stop-opacity="0"/>
</linearGradient>
</defs>
</svg>
